<?xml version="1.0" encoding="UTF-8" standalone="no"?><svg xmlns="http://www.w3.org/2000/svg" xmlns:xlink="http://www.w3.org/1999/xlink" contentScriptType="application/ecmascript" contentStyleType="text/css" height="505px" preserveAspectRatio="none" style="width:1286px;height:505px;" version="1.1" viewBox="0 0 1286 505" width="1286px" zoomAndPan="magnify"><defs><filter height="300%" id="f1gipglv8c6gtd" width="300%" x="-1" y="-1"><feGaussianBlur result="blurOut" stdDeviation="2.0"/><feColorMatrix in="blurOut" result="blurOut2" type="matrix" values="0 0 0 0 0 0 0 0 0 0 0 0 0 0 0 0 0 0 .4 0"/><feOffset dx="4.0" dy="4.0" in="blurOut2" result="blurOut3"/><feBlend in="SourceGraphic" in2="blurOut3" mode="normal"/></filter></defs><g><!--MD5=[dd9c586612549e7a640ad73cb3e209f3]
cluster ros2senbay_example--><polygon fill="#FFFFFF" filter="url(#f1gipglv8c6gtd)" points="188,31,360,31,367,53.2969,1264,53.2969,1264,264,188,264,188,31" style="stroke: #000000; stroke-width: 1.5;"/><line style="stroke: #000000; stroke-width: 1.5;" x1="188" x2="367" y1="53.2969" y2="53.2969"/><text fill="#000000" font-family="sans-serif" font-size="14" font-weight="bold" lengthAdjust="spacingAndGlyphs" textLength="166" x="192" y="45.9951">ros2senbay_example</text><!--MD5=[70c5a3903e1080bbe50dca4629cdc730]
cluster senbay.core--><polygon fill="#FFFFFF" filter="url(#f1gipglv8c6gtd)" points="407,58,511,58,518,80.2969,1256,80.2969,1256,256,407,256,407,58" style="stroke: #000000; stroke-width: 1.5;"/><line style="stroke: #000000; stroke-width: 1.5;" x1="407" x2="518" y1="80.2969" y2="80.2969"/><text fill="#000000" font-family="sans-serif" font-size="14" font-weight="bold" lengthAdjust="spacingAndGlyphs" textLength="98" x="411" y="72.9951">senbay.core</text><!--MD5=[2a59f26258d1d7144b026084bef9b642]
cluster ros2senbay_publisher--><polygon fill="#FFFFFF" filter="url(#f1gipglv8c6gtd)" points="196,58,376,58,383,80.2969,388,80.2969,388,256,196,256,196,58" style="stroke: #000000; stroke-width: 1.5;"/><line style="stroke: #000000; stroke-width: 1.5;" x1="196" x2="383" y1="80.2969" y2="80.2969"/><text fill="#000000" font-family="sans-serif" font-size="14" font-weight="bold" lengthAdjust="spacingAndGlyphs" textLength="174" x="200" y="72.9951">ros2senbay_publisher</text><!--MD5=[24e3e1d43589db1fc9e40d8b39bfde9f]
cluster Python Modules--><rect fill="#FFFFFF" filter="url(#f1gipglv8c6gtd)" height="191" style="stroke: #000000; stroke-width: 1.5;" width="626" x="14" y="303"/><text fill="#000000" font-family="sans-serif" font-size="14" font-weight="bold" lengthAdjust="spacingAndGlyphs" textLength="126" x="264" y="317.9951">Python Modules</text><!--MD5=[00f2bbf988fab5bfdd88fa3093c03f88]
cluster zbar--><polygon fill="#FFFFFF" filter="url(#f1gipglv8c6gtd)" points="22,369.5,63,369.5,70,391.7969,138,391.7969,138,465.5,22,465.5,22,369.5" style="stroke: #000000; stroke-width: 1.5;"/><line style="stroke: #000000; stroke-width: 1.5;" x1="22" x2="70" y1="391.7969" y2="391.7969"/><text fill="#000000" font-family="sans-serif" font-size="14" font-weight="bold" lengthAdjust="spacingAndGlyphs" textLength="35" x="26" y="384.4951">zbar</text><!--MD5=[3621d044ab3778209b2dd8b43dec5a39]
cluster cv2--><polygon fill="#FFFFFF" filter="url(#f1gipglv8c6gtd)" points="156,369.5,190,369.5,197,391.7969,294,391.7969,294,465.5,156,465.5,156,369.5" style="stroke: #000000; stroke-width: 1.5;"/><line style="stroke: #000000; stroke-width: 1.5;" x1="156" x2="197" y1="391.7969" y2="391.7969"/><text fill="#000000" font-family="sans-serif" font-size="14" font-weight="bold" lengthAdjust="spacingAndGlyphs" textLength="28" x="160" y="384.4951">cv2</text><!--MD5=[d80072f09448e3cf4c8384fe2de7e589]
cluster ROS2--><polygon fill="#FFFFFF" filter="url(#f1gipglv8c6gtd)" points="302,330,350,330,357,352.2969,632,352.2969,632,486,302,486,302,330" style="stroke: #000000; stroke-width: 1.5;"/><line style="stroke: #000000; stroke-width: 1.5;" x1="302" x2="357" y1="352.2969" y2="352.2969"/><text fill="#000000" font-family="sans-serif" font-size="14" font-weight="bold" lengthAdjust="spacingAndGlyphs" textLength="42" x="306" y="344.9951">ROS2</text><!--MD5=[c32605ab5401387ae7c9eca0298064f3]
cluster std_msgs.msg--><polygon fill="#FFFFFF" filter="url(#f1gipglv8c6gtd)" points="310,369.5,428,369.5,435,391.7969,438,391.7969,438,465.5,310,465.5,310,369.5" style="stroke: #000000; stroke-width: 1.5;"/><line style="stroke: #000000; stroke-width: 1.5;" x1="310" x2="435" y1="391.7969" y2="391.7969"/><text fill="#000000" font-family="sans-serif" font-size="14" font-weight="bold" lengthAdjust="spacingAndGlyphs" textLength="112" x="314" y="384.4951">std_msgs.msg</text><!--MD5=[52b8d9bd5f1ab85aedd64098fbd9e6ee]
cluster rclpy.node--><polygon fill="#FFFFFF" filter="url(#f1gipglv8c6gtd)" points="446,357,536,357,543,379.2969,624,379.2969,624,478,446,478,446,357" style="stroke: #000000; stroke-width: 1.5;"/><line style="stroke: #000000; stroke-width: 1.5;" x1="446" x2="543" y1="379.2969" y2="379.2969"/><text fill="#000000" font-family="sans-serif" font-size="14" font-weight="bold" lengthAdjust="spacingAndGlyphs" textLength="84" x="450" y="371.9951">rclpy.node</text><!--MD5=[5ba9f443e09b476be6ba0d3c0dcd85ef]
class senbay.core.BaseX--><rect fill="#FEFECE" filter="url(#f1gipglv8c6gtd)" height="150.4375" id="senbay.core.BaseX" style="stroke: #A80036; stroke-width: 1.5;" width="243" x="415.5" y="91.5"/><ellipse cx="513.75" cy="107.5" fill="#ADD1B2" rx="11" ry="11" style="stroke: #A80036; stroke-width: 1.0;"/><path d="M516.7188,113.1406 Q516.1406,113.4375 515.5,113.5859 Q514.8594,113.7344 514.1563,113.7344 Q511.6563,113.7344 510.3359,112.0859 Q509.0156,110.4375 509.0156,107.3125 Q509.0156,104.1875 510.3359,102.5313 Q511.6563,100.875 514.1563,100.875 Q514.8594,100.875 515.5078,101.0313 Q516.1563,101.1875 516.7188,101.4844 L516.7188,104.2031 Q516.0938,103.625 515.5,103.3516 Q514.9063,103.0781 514.2813,103.0781 Q512.9375,103.0781 512.25,104.1484 Q511.5625,105.2188 511.5625,107.3125 Q511.5625,109.4063 512.25,110.4766 Q512.9375,111.5469 514.2813,111.5469 Q514.9063,111.5469 515.5,111.2734 Q516.0938,111 516.7188,110.4219 L516.7188,113.1406 Z "/><text fill="#000000" font-family="sans-serif" font-size="12" lengthAdjust="spacingAndGlyphs" textLength="38" x="534.25" y="111.6543">BaseX</text><line style="stroke: #A80036; stroke-width: 1.5;" x1="416.5" x2="657.5" y1="123.5" y2="123.5"/><ellipse cx="426.5" cy="134.5" fill="none" rx="3" ry="3" style="stroke: #038048; stroke-width: 1.0;"/><text fill="#000000" font-family="sans-serif" font-size="11" lengthAdjust="spacingAndGlyphs" textLength="37" x="435.5" y="137.7104">PN: int</text><ellipse cx="426.5" cy="147.3047" fill="none" rx="3" ry="3" style="stroke: #038048; stroke-width: 1.0;"/><text fill="#000000" font-family="sans-serif" font-size="11" lengthAdjust="spacingAndGlyphs" textLength="116" x="435.5" y="150.5151">REVERSE_TABLE: list</text><ellipse cx="426.5" cy="160.1094" fill="none" rx="3" ry="3" style="stroke: #038048; stroke-width: 1.0;"/><text fill="#000000" font-family="sans-serif" font-size="11" lengthAdjust="spacingAndGlyphs" textLength="60" x="435.5" y="163.3198">TABLE: list</text><line style="stroke: #A80036; stroke-width: 1.5;" x1="416.5" x2="657.5" y1="169.9141" y2="169.9141"/><ellipse cx="426.5" cy="180.9141" fill="#84BE84" rx="3" ry="3" style="stroke: #038048; stroke-width: 1.0;"/><text fill="#000000" font-family="sans-serif" font-size="11" lengthAdjust="spacingAndGlyphs" textLength="99" x="435.5" y="184.1245">__init__() -&gt; None</text><ellipse cx="426.5" cy="193.7188" fill="#84BE84" rx="3" ry="3" style="stroke: #038048; stroke-width: 1.0;"/><text fill="#000000" font-family="sans-serif" font-size="11" lengthAdjust="spacingAndGlyphs" textLength="217" x="435.5" y="196.9292">decodeDoubleValue(sVal: str) -&gt; None</text><ellipse cx="426.5" cy="206.5234" fill="#84BE84" rx="3" ry="3" style="stroke: #038048; stroke-width: 1.0;"/><text fill="#000000" font-family="sans-serif" font-size="11" lengthAdjust="spacingAndGlyphs" textLength="205" x="435.5" y="209.7339">decodeLongValue(sVal: str) -&gt; None</text><ellipse cx="426.5" cy="219.3281" fill="#84BE84" rx="3" ry="3" style="stroke: #038048; stroke-width: 1.0;"/><text fill="#000000" font-family="sans-serif" font-size="11" lengthAdjust="spacingAndGlyphs" textLength="213" x="435.5" y="222.5386">encodeDoubleValue(dVal: float) -&gt; str</text><ellipse cx="426.5" cy="232.1328" fill="#84BE84" rx="3" ry="3" style="stroke: #038048; stroke-width: 1.0;"/><text fill="#000000" font-family="sans-serif" font-size="11" lengthAdjust="spacingAndGlyphs" textLength="186" x="435.5" y="235.3433">encodeLongValue(lVal: int) -&gt; str</text><!--MD5=[ff5de298d40f4b190e4104d1cb7ce15b]
class senbay.core.SenbayFormat--><rect fill="#FEFECE" filter="url(#f1gipglv8c6gtd)" height="150.4375" id="senbay.core.SenbayFormat" style="stroke: #A80036; stroke-width: 1.5;" width="249" x="734.5" y="91.5"/><ellipse cx="809.75" cy="107.5" fill="#ADD1B2" rx="11" ry="11" style="stroke: #A80036; stroke-width: 1.0;"/><path d="M812.7188,113.1406 Q812.1406,113.4375 811.5,113.5859 Q810.8594,113.7344 810.1563,113.7344 Q807.6563,113.7344 806.3359,112.0859 Q805.0156,110.4375 805.0156,107.3125 Q805.0156,104.1875 806.3359,102.5313 Q807.6563,100.875 810.1563,100.875 Q810.8594,100.875 811.5078,101.0313 Q812.1563,101.1875 812.7188,101.4844 L812.7188,104.2031 Q812.0938,103.625 811.5,103.3516 Q810.9063,103.0781 810.2813,103.0781 Q808.9375,103.0781 808.25,104.1484 Q807.5625,105.2188 807.5625,107.3125 Q807.5625,109.4063 808.25,110.4766 Q808.9375,111.5469 810.2813,111.5469 Q810.9063,111.5469 811.5,111.2734 Q812.0938,111 812.7188,110.4219 L812.7188,113.1406 Z "/><text fill="#000000" font-family="sans-serif" font-size="12" lengthAdjust="spacingAndGlyphs" textLength="90" x="830.25" y="111.6543">SenbayFormat</text><line style="stroke: #A80036; stroke-width: 1.5;" x1="735.5" x2="982.5" y1="123.5" y2="123.5"/><ellipse cx="745.5" cy="134.5" fill="none" rx="3" ry="3" style="stroke: #038048; stroke-width: 1.0;"/><text fill="#000000" font-family="sans-serif" font-size="11" lengthAdjust="spacingAndGlyphs" textLength="37" x="754.5" y="137.7104">PN: int</text><ellipse cx="745.5" cy="147.3047" fill="none" rx="3" ry="3" style="stroke: #038048; stroke-width: 1.0;"/><text fill="#000000" font-family="sans-serif" font-size="11" lengthAdjust="spacingAndGlyphs" textLength="121" x="754.5" y="150.5151">RESERVED_KEYS: dict</text><ellipse cx="745.5" cy="160.1094" fill="none" rx="3" ry="3" style="stroke: #038048; stroke-width: 1.0;"/><text fill="#000000" font-family="sans-serif" font-size="11" lengthAdjust="spacingAndGlyphs" textLength="78" x="754.5" y="163.3198">basex: BaseX</text><line style="stroke: #A80036; stroke-width: 1.5;" x1="735.5" x2="982.5" y1="169.9141" y2="169.9141"/><ellipse cx="745.5" cy="180.9141" fill="#84BE84" rx="3" ry="3" style="stroke: #038048; stroke-width: 1.0;"/><text fill="#000000" font-family="sans-serif" font-size="11" lengthAdjust="spacingAndGlyphs" textLength="99" x="754.5" y="184.1245">__init__() -&gt; None</text><ellipse cx="745.5" cy="193.7188" fill="#84BE84" rx="3" ry="3" style="stroke: #038048; stroke-width: 1.0;"/><text fill="#000000" font-family="sans-serif" font-size="11" lengthAdjust="spacingAndGlyphs" textLength="131" x="754.5" y="196.9292">decode(text: str) -&gt; str</text><ellipse cx="745.5" cy="206.5234" fill="#84BE84" rx="3" ry="3" style="stroke: #038048; stroke-width: 1.0;"/><text fill="#000000" font-family="sans-serif" font-size="11" lengthAdjust="spacingAndGlyphs" textLength="131" x="754.5" y="209.7339">encode(text: str) -&gt; str</text><ellipse cx="745.5" cy="219.3281" fill="#84BE84" rx="3" ry="3" style="stroke: #038048; stroke-width: 1.0;"/><text fill="#000000" font-family="sans-serif" font-size="11" lengthAdjust="spacingAndGlyphs" textLength="223" x="754.5" y="222.5386">getReservedOriginalKey(key: str) -&gt; str</text><ellipse cx="745.5" cy="232.1328" fill="#84BE84" rx="3" ry="3" style="stroke: #038048; stroke-width: 1.0;"/><text fill="#000000" font-family="sans-serif" font-size="11" lengthAdjust="spacingAndGlyphs" textLength="210" x="754.5" y="235.3433">getReservedShortKey(key: str) -&gt; str</text><!--MD5=[f642c3699bc6ae4017f5e927394ef58f]
class senbay.core.SenbayData--><rect fill="#FEFECE" filter="url(#f1gipglv8c6gtd)" height="163.2422" id="senbay.core.SenbayData" style="stroke: #A80036; stroke-width: 1.5;" width="212" x="1036" y="85"/><ellipse cx="1099.75" cy="101" fill="#ADD1B2" rx="11" ry="11" style="stroke: #A80036; stroke-width: 1.0;"/><path d="M1102.7188,106.6406 Q1102.1406,106.9375 1101.5,107.0859 Q1100.8594,107.2344 1100.1563,107.2344 Q1097.6563,107.2344 1096.3359,105.5859 Q1095.0156,103.9375 1095.0156,100.8125 Q1095.0156,97.6875 1096.3359,96.0313 Q1097.6563,94.375 1100.1563,94.375 Q1100.8594,94.375 1101.5078,94.5313 Q1102.1563,94.6875 1102.7188,94.9844 L1102.7188,97.7031 Q1102.0938,97.125 1101.5,96.8516 Q1100.9063,96.5781 1100.2813,96.5781 Q1098.9375,96.5781 1098.25,97.6484 Q1097.5625,98.7188 1097.5625,100.8125 Q1097.5625,102.9063 1098.25,103.9766 Q1098.9375,105.0469 1100.2813,105.0469 Q1100.9063,105.0469 1101.5,104.7734 Q1102.0938,104.5 1102.7188,103.9219 L1102.7188,106.6406 Z "/><text fill="#000000" font-family="sans-serif" font-size="12" lengthAdjust="spacingAndGlyphs" textLength="76" x="1120.25" y="105.1543">SenbayData</text><line style="stroke: #A80036; stroke-width: 1.5;" x1="1037" x2="1247" y1="117" y2="117"/><ellipse cx="1047" cy="128" fill="none" rx="3" ry="3" style="stroke: #038048; stroke-width: 1.0;"/><text fill="#000000" font-family="sans-serif" font-size="11" lengthAdjust="spacingAndGlyphs" textLength="37" x="1056" y="131.2104">PN: int</text><ellipse cx="1047" cy="140.8047" fill="none" rx="3" ry="3" style="stroke: #038048; stroke-width: 1.0;"/><text fill="#000000" font-family="sans-serif" font-size="11" lengthAdjust="spacingAndGlyphs" textLength="104" x="1056" y="144.0151">SF: SenbayFormat</text><ellipse cx="1047" cy="153.6094" fill="none" rx="3" ry="3" style="stroke: #038048; stroke-width: 1.0;"/><text fill="#000000" font-family="sans-serif" font-size="11" lengthAdjust="spacingAndGlyphs" textLength="95" x="1056" y="156.8198">senbayData: dict</text><line style="stroke: #A80036; stroke-width: 1.5;" x1="1037" x2="1247" y1="163.4141" y2="163.4141"/><ellipse cx="1047" cy="174.4141" fill="#84BE84" rx="3" ry="3" style="stroke: #038048; stroke-width: 1.0;"/><text fill="#000000" font-family="sans-serif" font-size="11" lengthAdjust="spacingAndGlyphs" textLength="99" x="1056" y="177.6245">__init__() -&gt; None</text><ellipse cx="1047" cy="187.2188" fill="#84BE84" rx="3" ry="3" style="stroke: #038048; stroke-width: 1.0;"/><text fill="#000000" font-family="sans-serif" font-size="11" lengthAdjust="spacingAndGlyphs" textLength="186" x="1056" y="190.4292">add_number(key, value) -&gt; None</text><ellipse cx="1047" cy="200.0234" fill="#84BE84" rx="3" ry="3" style="stroke: #038048; stroke-width: 1.0;"/><text fill="#000000" font-family="sans-serif" font-size="11" lengthAdjust="spacingAndGlyphs" textLength="163" x="1056" y="203.2339">add_text(key, value) -&gt; None</text><ellipse cx="1047" cy="212.8281" fill="#84BE84" rx="3" ry="3" style="stroke: #038048; stroke-width: 1.0;"/><text fill="#000000" font-family="sans-serif" font-size="11" lengthAdjust="spacingAndGlyphs" textLength="86" x="1056" y="216.0386">clear() -&gt; None</text><ellipse cx="1047" cy="225.6328" fill="#84BE84" rx="3" ry="3" style="stroke: #038048; stroke-width: 1.0;"/><text fill="#000000" font-family="sans-serif" font-size="11" lengthAdjust="spacingAndGlyphs" textLength="135" x="1056" y="228.8433">decode(text: str) -&gt; dict</text><ellipse cx="1047" cy="238.4375" fill="#84BE84" rx="3" ry="3" style="stroke: #038048; stroke-width: 1.0;"/><text fill="#000000" font-family="sans-serif" font-size="11" lengthAdjust="spacingAndGlyphs" textLength="175" x="1056" y="241.6479">encode(compress: bool) -&gt; str</text><!--MD5=[881fa86893c37125c7b53bc6eb3e30ac]
class ros2senbay_publisher.SamplePublisher--><rect fill="#FEFECE" filter="url(#f1gipglv8c6gtd)" height="163.2422" id="ros2senbay_publisher.SamplePublisher" style="stroke: #A80036; stroke-width: 1.5;" width="176" x="204" y="85"/><ellipse cx="237" cy="101" fill="#ADD1B2" rx="11" ry="11" style="stroke: #A80036; stroke-width: 1.0;"/><path d="M239.9688,106.6406 Q239.3906,106.9375 238.75,107.0859 Q238.1094,107.2344 237.4063,107.2344 Q234.9063,107.2344 233.5859,105.5859 Q232.2656,103.9375 232.2656,100.8125 Q232.2656,97.6875 233.5859,96.0313 Q234.9063,94.375 237.4063,94.375 Q238.1094,94.375 238.7578,94.5313 Q239.4063,94.6875 239.9688,94.9844 L239.9688,97.7031 Q239.3438,97.125 238.75,96.8516 Q238.1563,96.5781 237.5313,96.5781 Q236.1875,96.5781 235.5,97.6484 Q234.8125,98.7188 234.8125,100.8125 Q234.8125,102.9063 235.5,103.9766 Q236.1875,105.0469 237.5313,105.0469 Q238.1563,105.0469 238.75,104.7734 Q239.3438,104.5 239.9688,103.9219 L239.9688,106.6406 Z "/><text fill="#000000" font-family="sans-serif" font-size="12" lengthAdjust="spacingAndGlyphs" textLength="104" x="255" y="105.1543">SamplePublisher</text><line style="stroke: #A80036; stroke-width: 1.5;" x1="205" x2="379" y1="117" y2="117"/><ellipse cx="215" cy="128" fill="none" rx="3" ry="3" style="stroke: #038048; stroke-width: 1.0;"/><text fill="#000000" font-family="sans-serif" font-size="11" lengthAdjust="spacingAndGlyphs" textLength="45" x="224" y="131.2104">title: str</text><ellipse cx="215" cy="140.8047" fill="none" rx="3" ry="3" style="stroke: #038048; stroke-width: 1.0;"/><text fill="#000000" font-family="sans-serif" font-size="11" lengthAdjust="spacingAndGlyphs" textLength="66" x="224" y="144.0151">pub_lst: list</text><ellipse cx="215" cy="153.6094" fill="none" rx="3" ry="3" style="stroke: #038048; stroke-width: 1.0;"/><text fill="#000000" font-family="sans-serif" font-size="11" lengthAdjust="spacingAndGlyphs" textLength="40" x="224" y="156.8198">fps: int</text><ellipse cx="215" cy="166.4141" fill="none" rx="3" ry="3" style="stroke: #038048; stroke-width: 1.0;"/><text fill="#000000" font-family="sans-serif" font-size="11" lengthAdjust="spacingAndGlyphs" textLength="58" x="224" y="169.6245">timer: cap</text><ellipse cx="215" cy="179.2188" fill="none" rx="3" ry="3" style="stroke: #038048; stroke-width: 1.0;"/><text fill="#000000" font-family="sans-serif" font-size="11" lengthAdjust="spacingAndGlyphs" textLength="150" x="224" y="182.4292">capture: cv2.VideoCapture</text><ellipse cx="215" cy="192.0234" fill="none" rx="3" ry="3" style="stroke: #038048; stroke-width: 1.0;"/><text fill="#000000" font-family="sans-serif" font-size="11" lengthAdjust="spacingAndGlyphs" textLength="129" x="224" y="195.2339">scanner: zbar.Scanner</text><ellipse cx="215" cy="204.8281" fill="none" rx="3" ry="3" style="stroke: #038048; stroke-width: 1.0;"/><text fill="#000000" font-family="sans-serif" font-size="11" lengthAdjust="spacingAndGlyphs" textLength="143" x="224" y="208.0386">senbayData: SenbayData</text><line style="stroke: #A80036; stroke-width: 1.5;" x1="205" x2="379" y1="214.6328" y2="214.6328"/><ellipse cx="215" cy="225.6328" fill="#84BE84" rx="3" ry="3" style="stroke: #038048; stroke-width: 1.0;"/><text fill="#000000" font-family="sans-serif" font-size="11" lengthAdjust="spacingAndGlyphs" textLength="99" x="224" y="228.8433">__init__() -&gt; None</text><ellipse cx="215" cy="238.4375" fill="#84BE84" rx="3" ry="3" style="stroke: #038048; stroke-width: 1.0;"/><text fill="#000000" font-family="sans-serif" font-size="11" lengthAdjust="spacingAndGlyphs" textLength="139" x="224" y="241.6479">timer_callback() -&gt; None</text><!--MD5=[c2f4f131a8d3c2d20943e1162a74b0a0]
class zbar.Scanner--><rect fill="#FEFECE" filter="url(#f1gipglv8c6gtd)" height="60.8047" id="zbar.Scanner" style="stroke: #A80036; stroke-width: 1.5;" width="99" x="30.5" y="396.5"/><ellipse cx="52.25" cy="412.5" fill="#ADD1B2" rx="11" ry="11" style="stroke: #A80036; stroke-width: 1.0;"/><path d="M55.2188,418.1406 Q54.6406,418.4375 54,418.5859 Q53.3594,418.7344 52.6563,418.7344 Q50.1563,418.7344 48.8359,417.0859 Q47.5156,415.4375 47.5156,412.3125 Q47.5156,409.1875 48.8359,407.5313 Q50.1563,405.875 52.6563,405.875 Q53.3594,405.875 54.0078,406.0313 Q54.6563,406.1875 55.2188,406.4844 L55.2188,409.2031 Q54.5938,408.625 54,408.3516 Q53.4063,408.0781 52.7813,408.0781 Q51.4375,408.0781 50.75,409.1484 Q50.0625,410.2188 50.0625,412.3125 Q50.0625,414.4063 50.75,415.4766 Q51.4375,416.5469 52.7813,416.5469 Q53.4063,416.5469 54,416.2734 Q54.5938,416 55.2188,415.4219 L55.2188,418.1406 Z "/><text fill="#000000" font-family="sans-serif" font-size="12" lengthAdjust="spacingAndGlyphs" textLength="52" x="67.75" y="416.6543">Scanner</text><line style="stroke: #A80036; stroke-width: 1.5;" x1="31.5" x2="128.5" y1="428.5" y2="428.5"/><line style="stroke: #A80036; stroke-width: 1.5;" x1="31.5" x2="128.5" y1="436.5" y2="436.5"/><ellipse cx="41.5" cy="447.5" fill="#84BE84" rx="3" ry="3" style="stroke: #038048; stroke-width: 1.0;"/><text fill="#000000" font-family="sans-serif" font-size="11" lengthAdjust="spacingAndGlyphs" textLength="73" x="50.5" y="450.7104">scan() -&gt; list</text><!--MD5=[509645ec8e56665fd29b26ca0bd8c7a7]
class cv2.VideoCapture--><rect fill="#FEFECE" filter="url(#f1gipglv8c6gtd)" height="60.8047" id="cv2.VideoCapture" style="stroke: #A80036; stroke-width: 1.5;" width="121" x="164.5" y="396.5"/><ellipse cx="181.3" cy="412.5" fill="#ADD1B2" rx="11" ry="11" style="stroke: #A80036; stroke-width: 1.0;"/><path d="M184.2688,418.1406 Q183.6906,418.4375 183.05,418.5859 Q182.4094,418.7344 181.7063,418.7344 Q179.2063,418.7344 177.8859,417.0859 Q176.5656,415.4375 176.5656,412.3125 Q176.5656,409.1875 177.8859,407.5313 Q179.2063,405.875 181.7063,405.875 Q182.4094,405.875 183.0578,406.0313 Q183.7063,406.1875 184.2688,406.4844 L184.2688,409.2031 Q183.6438,408.625 183.05,408.3516 Q182.4563,408.0781 181.8313,408.0781 Q180.4875,408.0781 179.8,409.1484 Q179.1125,410.2188 179.1125,412.3125 Q179.1125,414.4063 179.8,415.4766 Q180.4875,416.5469 181.8313,416.5469 Q182.4563,416.5469 183.05,416.2734 Q183.6438,416 184.2688,415.4219 L184.2688,418.1406 Z "/><text fill="#000000" font-family="sans-serif" font-size="12" lengthAdjust="spacingAndGlyphs" textLength="85" x="195.7" y="416.6543">VideoCapture</text><line style="stroke: #A80036; stroke-width: 1.5;" x1="165.5" x2="284.5" y1="428.5" y2="428.5"/><line style="stroke: #A80036; stroke-width: 1.5;" x1="165.5" x2="284.5" y1="436.5" y2="436.5"/><ellipse cx="175.5" cy="447.5" fill="#84BE84" rx="3" ry="3" style="stroke: #038048; stroke-width: 1.0;"/><text fill="#000000" font-family="sans-serif" font-size="11" lengthAdjust="spacingAndGlyphs" textLength="95" x="184.5" y="450.7104">read() -&gt; (bool, )</text><!--MD5=[72f192ac7d3fc65b01ccfcdf48af7bdd]
class std_msgs.msg.Float32--><rect fill="#FEFECE" filter="url(#f1gipglv8c6gtd)" height="60.8047" id="std_msgs.msg.Float32" style="stroke: #A80036; stroke-width: 1.5;" width="79" x="320.5" y="396.5"/><ellipse cx="335.5" cy="412.5" fill="#ADD1B2" rx="11" ry="11" style="stroke: #A80036; stroke-width: 1.0;"/><path d="M338.4688,418.1406 Q337.8906,418.4375 337.25,418.5859 Q336.6094,418.7344 335.9063,418.7344 Q333.4063,418.7344 332.0859,417.0859 Q330.7656,415.4375 330.7656,412.3125 Q330.7656,409.1875 332.0859,407.5313 Q333.4063,405.875 335.9063,405.875 Q336.6094,405.875 337.2578,406.0313 Q337.9063,406.1875 338.4688,406.4844 L338.4688,409.2031 Q337.8438,408.625 337.25,408.3516 Q336.6563,408.0781 336.0313,408.0781 Q334.6875,408.0781 334,409.1484 Q333.3125,410.2188 333.3125,412.3125 Q333.3125,414.4063 334,415.4766 Q334.6875,416.5469 336.0313,416.5469 Q336.6563,416.5469 337.25,416.2734 Q337.8438,416 338.4688,415.4219 L338.4688,418.1406 Z "/><text fill="#000000" font-family="sans-serif" font-size="12" lengthAdjust="spacingAndGlyphs" textLength="47" x="349.5" y="416.6543">Float32</text><line style="stroke: #A80036; stroke-width: 1.5;" x1="321.5" x2="398.5" y1="428.5" y2="428.5"/><ellipse cx="331.5" cy="439.5" fill="none" rx="3" ry="3" style="stroke: #038048; stroke-width: 1.0;"/><text fill="#000000" font-family="sans-serif" font-size="11" lengthAdjust="spacingAndGlyphs" textLength="25" x="340.5" y="442.7104">data</text><line style="stroke: #A80036; stroke-width: 1.5;" x1="321.5" x2="398.5" y1="449.3047" y2="449.3047"/><!--MD5=[4e576d7c1fe58108f9dcae27221005f2]
class rclpy.node.Node--><rect fill="#FEFECE" filter="url(#f1gipglv8c6gtd)" height="86.4141" id="rclpy.node.Node" style="stroke: #A80036; stroke-width: 1.5;" width="161" x="454.5" y="384"/><ellipse cx="514.25" cy="400" fill="#ADD1B2" rx="11" ry="11" style="stroke: #A80036; stroke-width: 1.0;"/><path d="M517.2188,405.6406 Q516.6406,405.9375 516,406.0859 Q515.3594,406.2344 514.6563,406.2344 Q512.1563,406.2344 510.8359,404.5859 Q509.5156,402.9375 509.5156,399.8125 Q509.5156,396.6875 510.8359,395.0313 Q512.1563,393.375 514.6563,393.375 Q515.3594,393.375 516.0078,393.5313 Q516.6563,393.6875 517.2188,393.9844 L517.2188,396.7031 Q516.5938,396.125 516,395.8516 Q515.4063,395.5781 514.7813,395.5781 Q513.4375,395.5781 512.75,396.6484 Q512.0625,397.7188 512.0625,399.8125 Q512.0625,401.9063 512.75,402.9766 Q513.4375,404.0469 514.7813,404.0469 Q515.4063,404.0469 516,403.7734 Q516.5938,403.5 517.2188,402.9219 L517.2188,405.6406 Z "/><text fill="#000000" font-family="sans-serif" font-size="12" lengthAdjust="spacingAndGlyphs" textLength="33" x="534.75" y="404.1543">Node</text><line style="stroke: #A80036; stroke-width: 1.5;" x1="455.5" x2="614.5" y1="416" y2="416"/><line style="stroke: #A80036; stroke-width: 1.5;" x1="455.5" x2="614.5" y1="424" y2="424"/><ellipse cx="465.5" cy="435" fill="#84BE84" rx="3" ry="3" style="stroke: #038048; stroke-width: 1.0;"/><text fill="#000000" font-family="sans-serif" font-size="11" lengthAdjust="spacingAndGlyphs" textLength="80" x="474.5" y="438.2104">create_timer()</text><ellipse cx="465.5" cy="447.8047" fill="#84BE84" rx="3" ry="3" style="stroke: #038048; stroke-width: 1.0;"/><text fill="#000000" font-family="sans-serif" font-size="11" lengthAdjust="spacingAndGlyphs" textLength="103" x="474.5" y="451.0151">create_publisher()</text><ellipse cx="465.5" cy="460.6094" fill="#84BE84" rx="3" ry="3" style="stroke: #038048; stroke-width: 1.0;"/><text fill="#000000" font-family="sans-serif" font-size="11" lengthAdjust="spacingAndGlyphs" textLength="135" x="474.5" y="463.8198">destroy_node() -&gt; None</text><!--MD5=[aa8681d91d5e41104ba1f06e8f6261f4]
link senbay.core.BaseX to senbay.core.SenbayFormat--><path d="M658.7344,166.5 C679.1381,166.5 700.4379,166.5 721.2111,166.5 " fill="none" id="senbay.core.BaseX-&gt;senbay.core.SenbayFormat" style="stroke: #A80036; stroke-width: 1.0;"/><polygon fill="#A80036" points="734.4164,166.5,728.4164,162.5,722.4164,166.5,728.4164,170.5,734.4164,166.5" style="stroke: #A80036; stroke-width: 1.0;"/><text fill="#000000" font-family="sans-serif" font-size="13" lengthAdjust="spacingAndGlyphs" textLength="39" x="677" y="159.5669">baseX</text><!--MD5=[226c09004d7d6fa8e11d478170497d16]
link senbay.core.SenbayFormat to senbay.core.SenbayData--><path d="M983.5397,166.5 C996.5269,166.5 1009.7074,166.5 1022.6351,166.5 " fill="none" id="senbay.core.SenbayFormat-&gt;senbay.core.SenbayData" style="stroke: #A80036; stroke-width: 1.0;"/><polygon fill="#A80036" points="1035.997,166.5,1029.997,162.5,1023.997,166.5,1029.997,170.5,1035.997,166.5" style="stroke: #A80036; stroke-width: 1.0;"/><text fill="#000000" font-family="sans-serif" font-size="13" lengthAdjust="spacingAndGlyphs" textLength="16" x="1001.75" y="159.5669">SF</text><!--MD5=[87b9bf7c2d77cbbcab766dab8bbd4f93]
link ros2senbay_publisher.SamplePublisher to senbay.core.SenbayData--><path d="M335.4186,84.8852 C355.6486,56.4172 382.7881,28.4708 416.5,16 C446.0434,5.0712 953.9566,5.0712 983.5,16 C1016.3198,28.1408 1046.062,51.0643 1070.6851,75.4266 " fill="none" id="ros2senbay_publisher.SamplePublisher-&gt;senbay.core.SenbayData" style="stroke: #A80036; stroke-width: 1.0;"/><polygon fill="#A80036" points="1079.8673,84.8147,1078.5316,77.7284,1071.4766,76.2359,1072.8123,83.3222,1079.8673,84.8147" style="stroke: #A80036; stroke-width: 1.0;"/><!--MD5=[d913ab6767e7698426d394cfc7851353]
link ros2senbay_publisher.SamplePublisher to rclpy.node.Node--><path d="M380.1714,247.4285 C386.514,253.0696 392.8369,258.64 399,264 C419.4817,281.8126 427.4908,283.1455 446,303 C464.2306,322.5557 481.9153,345.9573 496.6527,367.136 " fill="none" id="ros2senbay_publisher.SamplePublisher-&gt;rclpy.node.Node" style="stroke: #A80036; stroke-width: 1.0;"/><polygon fill="none" points="502.591,363.4205,508.0393,383.8977,491.0104,371.2875,502.591,363.4205" style="stroke: #A80036; stroke-width: 1.0;"/><!--MD5=[d661d15b67c7546897fbccdc27d72f2b]
link ros2senbay_publisher.SamplePublisher to zbar.Scanner--><path d="M203.7546,241.8458 C184.1842,260.7391 164.407,281.7225 148,303 C128.6332,328.1159 111.4973,359.4573 99.2721,384.3467 " fill="none" id="ros2senbay_publisher.SamplePublisher-&gt;zbar.Scanner" style="stroke: #A80036; stroke-width: 1.0;"/><polygon fill="#A80036" points="93.5091,396.3482,99.7121,392.6709,98.7035,385.5307,92.5005,389.208,93.5091,396.3482" style="stroke: #A80036; stroke-width: 1.0;"/><text fill="#000000" font-family="sans-serif" font-size="13" lengthAdjust="spacingAndGlyphs" textLength="51" x="170" y="291.0669">scanner</text><!--MD5=[7281bc6c7812f8c9ab6052be722742ee]
link ros2senbay_publisher.SamplePublisher to cv2.VideoCapture--><path d="M270.9846,248.2091 C259.4662,292.9934 245.6499,346.7121 236.188,383.5003 " fill="none" id="ros2senbay_publisher.SamplePublisher-&gt;cv2.VideoCapture" style="stroke: #A80036; stroke-width: 1.0;"/><polygon fill="#A80036" points="232.9114,396.24,238.2799,391.4255,235.9006,384.6183,230.5321,389.4327,232.9114,396.24" style="stroke: #A80036; stroke-width: 1.0;"/><text fill="#000000" font-family="sans-serif" font-size="13" lengthAdjust="spacingAndGlyphs" textLength="49" x="264" y="291.0669">capture</text><!--MD5=[c4a0ac5fbb4fd9838cd0df1e80ef66d9]
link ros2senbay_publisher.SamplePublisher to std_msgs.msg.Float32--><path d="M314.0785,248.0668 C316.7668,258.1426 319.4594,268.3043 322,278 C331.3009,313.4952 341.5687,353.8276 349.0839,383.5706 " fill="none" id="ros2senbay_publisher.SamplePublisher-&gt;std_msgs.msg.Float32" style="stroke: #A80036; stroke-width: 1.0;"/><polygon fill="#A80036" points="352.3298,396.4357,354.7404,389.6395,349.3942,384.8003,346.9835,391.5966,352.3298,396.4357" style="stroke: #A80036; stroke-width: 1.0;"/><!--MD5=[b40cd907390c91c5400ae7cc1df2dfd3]
@startuml
package ros2senbay_example {
    namespace senbay.core {
        class BaseX {
            +PN: int
            +REVERSE_TABLE: list
            +TABLE: list
            +__init__() -> None
            +decodeDoubleValue(sVal: str) -> None
            +decodeLongValue(sVal: str) -> None
            +encodeDoubleValue(dVal: float) -> str 
            +encodeLongValue(lVal: int) -> str
        }

        class SenbayFormat {
            +PN: int
            +RESERVED_KEYS: dict
            +basex: BaseX
            +__init__() -> None
            +decode(text: str) -> str
            +encode(text: str) -> str
            +getReservedOriginalKey(key: str) -> str
            +getReservedShortKey(key: str) -> str
        }

        class SenbayData {
            +PN: int
            +SF: SenbayFormat
            +senbayData: dict
            +__init__() -> None
            +add_number(key, value) -> None
            +add_text(key, value) -> None
            +clear() -> None
            +decode(text: str) -> dict
            +encode(compress: bool) -> str
        }

        BaseX -* SenbayFormat: baseX
        SenbayFormat -* SenbayData: SF
    }

    namespace ros2senbay_publisher {
        class SamplePublisher {
            +title: str
            +pub_lst: list
            +fps: int
            +timer: cap
            +capture: cv2.VideoCapture
            +scanner: zbar.Scanner
            +senbayData: SenbayData
            +__init__() -> None
            +timer_callback() -> None
        }
    }

    ros2senbay_publisher.SamplePublisher -* senbay.core.SenbayData
}

rectangle "Python Modules" {
    namespace zbar {
        class Scanner {
            +scan() -> list
        }
    }

    namespace cv2 {
        class VideoCapture {
            +read() -> (bool, )
        }
    }

    package ROS2 {
        namespace std_msgs.msg {
            class Float32 {
                +data
            }
        }

        namespace rclpy.node {
            class Node {
                +create_timer()
                +create_publisher()
                +destroy_node() -> None
            }
        }
    }
}

ros2senbay_publisher.SamplePublisher - -|> rclpy.node.Node
ros2senbay_publisher.SamplePublisher -* zbar.Scanner: scanner
ros2senbay_publisher.SamplePublisher -* cv2.VideoCapture: capture
ros2senbay_publisher.SamplePublisher -* std_msgs.msg.Float32
@enduml

PlantUML version 1.2019.12(Sun Nov 03 10:24:54 UTC 2019)
(GPL source distribution)
Java Runtime: OpenJDK Runtime Environment
JVM: OpenJDK 64-Bit Server VM
Java Version: 1.8.0_232-heroku-b09
Operating System: Linux
Default Encoding: UTF-8
Language: en
Country: US
--></g></svg>